Gamera.Vs.Zigra.1971.DivX-NvadR.avi 
http://www.imdb.com/title/tt0067123/

Gamera vs. Zigra, from 1971, was already the seventh film in the original Gamera series, and its slipshod construction (even by the standards of films featuring actors in rubber monster suits) suggests less in the way of a thought-out film than a product cranked out so as to fulfill a McDonald\\\'s Happy Meal toy contract. A spaceship resembling a bowl of Dippin\\\' Dots ice cream from the planet Zigra has invaded Earth and demands the human race surrender at once; so as to prove their technological superiority, the female representative on board (later revealed to be a hypnotized human) launches a massive earthquake against Tokyo, leaving the city in ruins. Credibility wanes, then, when the city is seen perfectly intact whenever it appears outside the Zigran viewfinder, or when the antagonistic woman proves utterly incapable of dispatching two children who managed to escape her presence after catching a glimpse inside the spaceship.

Best, then, to forget the human filler altogether and concentrate on the titular matchup. When Gamera destroys the spaceship, he frees a giant alien shark, complete with laser-beam nose and capable of bipedal locomotion. And so it goes. The film entire isn\\\'t nearly as much fun as it should be, but for those with a cheeky fondness for city-scale monster mashes, there are some fleeting pleasures.

Would that such could be said for the 1980 follow-up, Gamera: The Super Monster, which functions as something of a greatest-hits package for the series. Another malevolent alien race—obviously fans of the original Star Wars opening—demands the total submission of humanity, unleashing the entirety of Gamera\\\'s former foes on the Earth, albeit one at a time, not unlike anonymous henchman. Footage from the preceding Gamera sequels has been recycled here in utterly shameless fashion, most of it having been whittled down via new nip-and-tuck edits that frequently destroy what little sense of continuity there was in the first place. As a result, the rules of physics appear to have taken a vacation, but not even in ways entertaining or surreal, merely half-assed; it isn\\\'t even made clear how some of this film\\\'s antagonists are finally defeated, unless we\\\'re to assume that they\\\'ve all simply become pushovers.

No film featuring a half-dozen skyscraper-sized monsters duking it out can possibly justify being this lethargic. Similarly yawn-inducing is the film\\\'s human plot concerning three \\\"space woman\\\" who transform into human disguises via a series of oft-repeating and utterly hilarious cheerleading moves. Props are due, however, for the daring finale, in which Gamera sacrifices himself in a surprisingly moving act that will likely prove a kick in the gut—and a sterling moral example—to any otherwise undemanding children in attendance. The filmmakers prove hilariously overconfident, however, in an earlier aside: Stomping around a miniature city, Gamera knocks over an easel advertisement, which, upon a zoom-in, is revealed to be a poster for the latest Godzilla movie. Suffice to say, inviting comparisons to the king of the monsters only serves to highlight the weaknesses rampant herein.

-------------- SCREENSHOTS ----------------- 
http://www.postimg.com/38000/photo-37366.jpg
 
http://www.postimg.com/38000/photo-37367.jpg
 
http://www.postimg.com/38000/photo-37368.jpg
 
http://www.postimg.com/38000/photo-37370.jpg
 
http://www.postimg.com/38000/photo-37371.jpg
--------------------------------------------
      
Format : AVI
      Format/Info : Audio Video Interleave
      File size : 1.09 GiB
      Duration : 1h 28mn
      Overall bit rate : 1 775 Kbps
      Writing library : VirtualDub-MPEG2 build 24586/release
   
   Video
      
      Format : MPEG-4 Visual
      Format settings, BVOP : Yes
      Format settings, QPel : No
      Format settings, GMC : No warppoints
      Format settings, Matrix : Default (H.263)
      Codec ID : DX50
      Codec ID/Hint : DivX 5
      Duration : 1h 28mn
      Bit rate : 1 638 Kbps
      Width : 704 pixels
      Height : 304 pixels
      Display aspect ratio : 2.35:1
      Frame rate : 23.976 fps
      Resolution : 24 bits
      Colorimetry : 4:2:0
      Scan type : Progressive
      Bits/(Pixel*Frame) : 0.319
      Stream size : 1.01 GiB (92%)
      Writing library : DivX 6.8.4
   
   Audio

      Language : English
      Format : MPEG Audio
      Format version : Version 1
      Format profile : Layer 3
      Codec ID : 55
      Codec ID/Hint : MP3
      Duration : 1h 28mn
      Bit rate mode : Constant
      Bit rate : 128 Kbps
      Channel(s) : 2 channels
      Sampling rate : 48.0 KHz
      Resolution : 16 bits
      Stream size : 80.8 MiB (7%)
      Alignment : Split accross interleaves
      Interleave, duration : 42 ms (1.00 video frame)
      Interleave, preload duration : 500 ms
      
      Source

      Region One DVD(NTSC) 720 x 480 29.970 fps 2.35:1 (4:3)
      Color AC3 Dolby 2CH Stereo 192 Kb/s 48.0 KHz


   Encode Note

      Production & Distribution Logo\\\'s have been removed due to
      video size constraints. Black borders also have been removed to 
      improve Bit/Pixel quality.

      (If your player is having problems displaying the correct
      aspect/resolution then you need to step up to KMPlayer, the
      only player superior to VLC & Media Player Classic!)

   NO SUBS
   
------------- TORRENT STATS ----------------   
 
http://torrent-stats.info/bd04/102af6570.png